<?xml version="1.0" encoding="UTF-8"?>
<!DOCTYPE svg PUBLIC "-//W3C//DTD SVG 1.1//EN" "http://www.w3.org/Graphics/SVG/1.1/DTD/svg11.dtd">
<svg xmlns="http://www.w3.org/2000/svg" version="1.1" width="512px" height="512px" style="shape-rendering:geometricPrecision; text-rendering:geometricPrecision; image-rendering:optimizeQuality; fill-rule:evenodd; clip-rule:evenodd" xmlns:xlink="http://www.w3.org/1999/xlink">
<g><path style="opacity:0.969" fill="#303b42" d="M 232.5,-0.5 C 247.833,-0.5 263.167,-0.5 278.5,-0.5C 368.144,10.3879 435.644,54.7213 481,132.5C 497.695,163.971 507.861,197.304 511.5,232.5C 511.5,247.833 511.5,263.167 511.5,278.5C 501.219,366.606 458.886,434.439 384.5,482C 362.34,494.878 339.007,504.712 314.5,511.5C 310.833,511.5 307.167,511.5 303.5,511.5C 300.937,509.388 299.104,506.721 298,503.5C 297.667,468.167 297.333,432.833 297,397.5C 295.418,388.171 292.751,379.171 289,370.5C 287.989,366.018 289.156,362.184 292.5,359C 318.931,352.117 342.931,340.45 364.5,324C 407.5,286.004 415.334,241.838 388,191.5C 383.377,185.208 378.377,179.208 373,173.5C 371.869,171.275 371.036,168.942 370.5,166.5C 378.054,150.439 378.887,134.106 373,117.5C 371.881,114.236 370.048,111.569 367.5,109.5C 352.436,115.702 339.436,124.869 328.5,137C 326.466,138.006 324.3,138.506 322,138.5C 300.429,131.353 278.262,127.353 255.5,126.5C 234.198,126.994 213.531,130.828 193.5,138C 190.5,138.667 187.5,138.667 184.5,138C 178.5,132.667 172.5,127.333 166.5,122C 159.757,117.6 152.757,113.6 145.5,110C 144.056,109.219 142.723,109.386 141.5,110.5C 134.004,124.134 132.171,138.468 136,153.5C 137.503,157.838 139.003,162.172 140.5,166.5C 137.762,173.419 133.596,179.419 128,184.5C 99.379,224.849 99.379,265.182 128,305.5C 148.839,330.184 175.006,346.684 206.5,355C 208.624,356.122 210.457,357.622 212,359.5C 216.429,374.613 213.263,387.78 202.5,399C 189.425,406.577 175.758,407.577 161.5,402C 146.863,394.351 133.029,385.517 120,375.5C 127.814,388.687 137.314,400.854 148.5,412C 155.868,418.184 164.202,422.518 173.5,425C 184.167,425.333 194.833,425.667 205.5,426C 209.333,427.167 211.833,429.667 213,433.5C 213.667,456.833 213.667,480.167 213,503.5C 211.896,506.721 210.063,509.388 207.5,511.5C 203.833,511.5 200.167,511.5 196.5,511.5C 101.629,483.797 39.1292,422.797 9,328.5C 4.7375,312.236 1.57083,295.903 -0.5,279.5C -0.5,263.833 -0.5,248.167 -0.5,232.5C 10.3879,142.856 54.7213,75.3562 132.5,30C 163.971,13.3053 197.304,3.1386 232.5,-0.5 Z M 237.5,21.5 C 327.731,18.5343 398.898,53.5343 451,126.5C 495.561,199.019 501.561,274.686 469,353.5C 438.215,418.95 388.548,463.283 320,486.5C 319.223,460.824 319.39,435.157 320.5,409.5C 319.806,397.671 318.139,386.004 315.5,374.5C 361.511,361.65 395.344,333.983 417,291.5C 434.351,244.603 427.184,201.936 395.5,163.5C 403.759,135.298 398.759,109.798 380.5,87C 378.1,85.2993 375.433,84.466 372.5,84.5C 351.831,89.8316 333.831,99.8316 318.5,114.5C 276.5,101.167 234.5,101.167 192.5,114.5C 177.137,99.8171 159.137,89.8171 138.5,84.5C 135.567,84.466 132.9,85.2993 130.5,87C 116.306,104.254 110.139,124.087 112,146.5C 113.181,152.867 114.181,159.2 115,165.5C 84.1597,202.535 76.8264,243.868 93,289.5C 107.639,321.806 130.805,345.973 162.5,362C 171.845,366.724 181.512,370.558 191.5,373.5C 191.311,379.356 188.311,382.689 182.5,383.5C 173.742,382.748 165.742,379.914 158.5,375C 144.807,363.656 129.807,354.322 113.5,347C 99.5862,341.917 85.2528,339.917 70.5,341C 63.8677,344.097 61.701,349.264 64,356.5C 64.4652,357.931 65.2986,359.097 66.5,360C 70.3214,361.832 74.3214,363.166 78.5,364C 81.9646,366.463 85.1312,369.296 88,372.5C 99.0904,387.679 110.424,402.679 122,417.5C 133.504,431.01 147.671,440.51 164.5,446C 173.441,447.346 182.441,447.846 191.5,447.5C 191.5,460.167 191.5,472.833 191.5,485.5C 107.694,457.857 53.5274,401.524 29,316.5C 7.71705,220.022 33.8837,139.188 107.5,74C 145.709,43.8734 189.042,26.3734 237.5,21.5 Z"/></g>
</svg>
